# xmcd
#
# Track frame offsets: 
#        150
#        12162
#        21592
#        36410
#        50691
#        60119
#        72991
#        83671
#        99635
#        111204
#        122563
#        132576
#        141633
#        152041
#        166987
#        179227
#        188180
#        199548
#        209880
#        226658
#        237735
#        250836
#        265398
#        278448
#        293123
#
# Disc length: 4135 seconds
#
# Revision: 0
# Processed by: cddbd v1.5.2PL0 Copyright (c) Steve Scherf et al.
# Submitted via: ExactAudioCopy v1.3
#
DISCID=7e102519
DTITLE=Stones River Ranch Boys - CD3_Gospel Standards
DYEAR=2011
DGENRE=Country
TTITLE0=Angel Band
TTITLE1=In The Sweet Bye And Bye
TTITLE2=Let Us Break Bread Together
TTITLE3=Will The Circle Be Unbroken
TTITLE4=He's Got The Whole World In His Hand
TTITLE5=Old Rugged Cross
TTITLE6=Give Me The Roses While I Live
TTITLE7=What A Friend We Have In Jesus
TTITLE8=Nearer My God To Thee
TTITLE9=Holy Holy Holy
TTITLE10=Ave Maria
TTITLE11=Onward Christian Solidiers
TTITLE12=Old Time Religion
TTITLE13=Rock Of Ages
TTITLE14=Mighty Fortress In Our God
TTITLE15=Where The Soul Never Dies
TTITLE16=Jesus Loves Me
TTITLE17=Battle Hymn Of The Republic
TTITLE18=Farther Along
TTITLE19=Softly And Tenderly
TTITLE20=I Love To Tell The Story
TTITLE21=In The Garden
TTITLE22=Whispering Hope
TTITLE23=Kum By Yah
TTITLE24=Sweet Hour Of Prayer
EXTD=
EXTT0=
EXTT1=
EXTT2=
EXTT3=
EXTT4=
EXTT5=
EXTT6=
EXTT7=
EXTT8=
EXTT9=
EXTT10=
EXTT11=
EXTT12=
EXTT13=
EXTT14=
EXTT15=
EXTT16=
EXTT17=
EXTT18=
EXTT19=
EXTT20=
EXTT21=
EXTT22=
EXTT23=
EXTT24=
PLAYORDER=
